<svg xmlns="http://www.w3.org/2000/svg" viewBox="0 0 180 180">
  <defs>
    <linearGradient id="bg" x1="0%" y1="0%" x2="100%" y2="100%">
      <stop offset="0%" stop-color="#141C45"/>
      <stop offset="100%" stop-color="#0A0E27"/>
    </linearGradient>
    <linearGradient id="glow" x1="0%" y1="0%" x2="100%" y2="100%">
      <stop offset="0%" stop-color="#FFA94D"/>
      <stop offset="100%" stop-color="#F38B2A"/>
    </linearGradient>
    <radialGradient id="halo" cx="50%" cy="45%" r="55%">
      <stop offset="0%" stop-color="#F38B2A" stop-opacity="0.55"/>
      <stop offset="60%" stop-color="#F38B2A" stop-opacity="0.12"/>
      <stop offset="100%" stop-color="#F38B2A" stop-opacity="0"/>
    </radialGradient>
  </defs>
  <rect width="180" height="180" rx="40" fill="url(#bg)"/>
  <circle cx="90" cy="90" r="78" fill="none" stroke="#34E4EA" stroke-width="1.2" stroke-opacity="0.35"/>
  <circle cx="90" cy="80" r="62" fill="url(#halo)"/>
  <path d="M90 38 C62 38 46 60 46 82 C46 99 55 113 67 121 L67 134 L113 134 L113 121 C125 113 134 99 134 82 C134 60 118 38 90 38 Z"
        fill="url(#glow)"/>
  <path d="M76 52 C66 58 60 70 60 82" stroke="#FFD89A" stroke-width="3" stroke-linecap="round" fill="none" opacity="0.7"/>
  <rect x="70" y="138" width="40" height="7" rx="3" fill="#F4F6FF"/>
  <rect x="76" y="150" width="28" height="7" rx="3" fill="#F4F6FF"/>
</svg>
