<svg xmlns="http://www.w3.org/2000/svg" viewBox="0 0 420 120" role="img" aria-label="AbriaCloud Technologies">
  <defs>
    <linearGradient id="bulbGradW" x1="0%" y1="0%" x2="100%" y2="100%">
      <stop offset="0%" stop-color="#FFB347"/>
      <stop offset="55%" stop-color="#F8A024"/>
      <stop offset="100%" stop-color="#E27514"/>
    </linearGradient>
  </defs>

  <g transform="translate(8,10)">
    <circle cx="38" cy="40" r="34" fill="#F38B2A" opacity="0.18"/>

    <path d="M38 8
             C24 8 14 18 14 32
             c0 9 5 16 11 21
             v6 a3 3 0 0 0 3 3
             h20 a3 3 0 0 0 3-3
             v-6
             c6-5 11-12 11-21
             C62 18 52 8 38 8 Z"
          fill="url(#bulbGradW)"/>

    <path d="M30 42
             C30 36 34 32 38 32
             C42 32 46 36 46 42
             M34 42 L42 42
             M32 38 C36 36 40 36 44 38"
          stroke="#0A0E27" stroke-width="2.4" stroke-linecap="round" fill="none"/>

    <path d="M22 24 C20 30 21 36 24 40"
          stroke="#FFE3B6" stroke-width="2" stroke-linecap="round" fill="none" opacity="0.85"/>

    <rect x="30" y="63" width="16" height="3" rx="1.4" fill="#FFFFFF"/>
    <rect x="32" y="68" width="12" height="3" rx="1.4" fill="#FFFFFF"/>

    <path d="M68 18
             c-4 0 -7 3 -7 7
             c0 4 3 7 7 7
             h14
             c4 0 7-3 7-7
             c0-4 -3-7 -7-7
             c0-4 -3-6 -7-6
             c-4 0 -7 2 -7 6 Z"
          fill="#FFFFFF" opacity="0.95"/>

    <rect x="90" y="14" width="5" height="5" fill="#F38B2A"/>
    <rect x="96" y="14" width="5" height="5" fill="#FFFFFF"/>
    <rect x="90" y="20" width="5" height="5" fill="#FFFFFF"/>
    <rect x="96" y="20" width="5" height="5" fill="#F38B2A"/>
    <rect x="102" y="14" width="5" height="5" fill="#F38B2A" opacity="0.7"/>
  </g>

  <g font-family="'Sora','Poppins','Segoe UI',sans-serif" font-weight="700" letter-spacing="-0.5">
    <text x="118" y="68" font-size="44" fill="#F38B2A">Abria</text>
    <text x="232" y="68" font-size="44" fill="#FFFFFF">Cloud</text>
  </g>

  <text x="232" y="92" font-family="'JetBrains Mono','Sora',sans-serif" font-weight="600" font-size="11" letter-spacing="5" fill="#FFFFFF" opacity="0.85">TECHNOLOGIES</text>
  <text x="395" y="92" font-family="'Sora',sans-serif" font-weight="700" font-size="11" fill="#F38B2A">®</text>
</svg>
