<svg xmlns="http://www.w3.org/2000/svg" style="display:none" aria-hidden="true">
<defs>
<symbol id="i-arrow-right" viewBox="0 0 448 512"><path fill="currentColor" d="M438.6 278.6c12.5-12.5 12.5-32.8 0-45.3l-160-160c-12.5-12.5-32.8-12.5-45.3 0s-12.5 32.8 0 45.3L338.7 224 32 224c-17.7 0-32 14.3-32 32s14.3 32 32 32l306.7 0L233.4 393.4c-12.5 12.5-12.5 32.8 0 45.3s32.8 12.5 45.3 0l160-160z"/></symbol>
<symbol id="i-arrow-up" viewBox="0 0 384 512"><path fill="currentColor" d="M214.6 41.4c-12.5-12.5-32.8-12.5-45.3 0l-160 160c-12.5 12.5-12.5 32.8 0 45.3s32.8 12.5 45.3 0L160 141.2 160 448c0 17.7 14.3 32 32 32s32-14.3 32-32l0-306.7L329.4 246.6c12.5 12.5 32.8 12.5 45.3 0s12.5-32.8 0-45.3l-160-160z"/></symbol>
<symbol id="i-arrow-up-right-from-square" viewBox="0 0 512 512"><path fill="currentColor" d="M320 0c-17.7 0-32 14.3-32 32s14.3 32 32 32l82.7 0L201.4 265.4c-12.5 12.5-12.5 32.8 0 45.3s32.8 12.5 45.3 0L448 109.3l0 82.7c0 17.7 14.3 32 32 32s32-14.3 32-32l0-160c0-17.7-14.3-32-32-32L320 0zM80 32C35.8 32 0 67.8 0 112L0 432c0 44.2 35.8 80 80 80l320 0c44.2 0 80-35.8 80-80l0-112c0-17.7-14.3-32-32-32s-32 14.3-32 32l0 112c0 8.8-7.2 16-16 16L80 448c-8.8 0-16-7.2-16-16l0-320c0-8.8 7.2-16 16-16l112 0c17.7 0 32-14.3 32-32s-14.3-32-32-32L80 32z"/></symbol>
<symbol id="i-arrow-right-to-bracket" viewBox="0 0 512 512"><path fill="currentColor" d="M352 96l64 0c17.7 0 32 14.3 32 32l0 256c0 17.7-14.3 32-32 32l-64 0c-17.7 0-32 14.3-32 32s14.3 32 32 32l64 0c53 0 96-43 96-96l0-256c0-53-43-96-96-96L352 32c-17.7 0-32 14.3-32 32s14.3 32 32 32zm-9.4 182.6c12.5-12.5 12.5-32.8 0-45.3l-128-128c-12.5-12.5-32.8-12.5-45.3 0s-12.5 32.8 0 45.3L242.7 224 32 224c-17.7 0-32 14.3-32 32s14.3 32 32 32l210.7 0-73.4 73.4c-12.5 12.5-12.5 32.8 0 45.3s32.8 12.5 45.3 0l128-128z"/></symbol>
<symbol id="i-shield-halved" viewBox="0 0 512 512"><path fill="currentColor" d="M256 0c4.6 0 9.2 1 13.4 2.9L457.7 82.8c22 9.3 38.4 31 38.3 57.2c-.5 99.2-41.3 280.7-213.6 363.2c-16.7 8-36.1 8-52.8 0C57.3 420.7 16.5 239.2 16 140c-.1-26.2 16.3-47.9 38.3-57.2L242.7 2.9C246.8 1 251.4 0 256 0zm0 66.8l0 378.1C394 378 431.1 230.1 432 141.4L256 66.8s0 0 0 0z"/></symbol>
<symbol id="i-shield" viewBox="0 0 512 512"><path fill="currentColor" d="M256 0c4.6 0 9.2 1 13.4 2.9L457.7 82.8c22 9.3 38.4 31 38.3 57.2c-.5 99.2-41.3 280.7-213.6 363.2c-16.7 8-36.1 8-52.8 0C57.3 420.7 16.5 239.2 16 140c-.1-26.2 16.3-47.9 38.3-57.2L242.7 2.9C246.8 1 251.4 0 256 0z"/></symbol>
<symbol id="i-user-shield" viewBox="0 0 640 512"><path fill="currentColor" d="M224 256A128 128 0 1 0 224 0a128 128 0 1 0 0 256zm-45.7 48C79.8 304 0 383.8 0 482.3C0 498.7 13.3 512 29.7 512l268.6 0c-13-20.3-20.3-44.5-20.3-70.4l0-90.8c0-21.4 8.7-40.8 22.7-54.7c-2.7-.5-5.4-.7-8.2-.7l-114.5 0zM528 240c-114.4 0-160 35.4-160 84.5c0 39.6 33.7 71.5 64 71.5l192 0c30.3 0 64-31.9 64-71.5C688 275.4 642.4 240 528 240zM448 488c0 13.3 10.7 24 24 24l112 0c13.3 0 24-10.7 24-24l0-86.4c-25.6 19.5-67 33.4-112 33.4s-86.4-13.9-112-33.4l0 86.4z"/></symbol>
<symbol id="i-bolt-lightning" viewBox="0 0 384 512"><path fill="currentColor" d="M0 256L28.5 28c2-16 15.6-28 31.8-28L228.9 0c15 0 27.1 12.1 27.1 27.1c0 3.2-.6 6.5-1.7 9.5L208 160l133.7 0c14.5 0 26.3 11.8 26.3 26.3c0 6.5-2.4 12.7-6.7 17.6L160 480c-3 4.3-7.9 6.9-13.1 6.9c-9.5 0-16.4-9.1-13.9-18.3L172 320 32 320c-17.7 0-32-14.3-32-32c0-3.5 .6-7 1.7-10.4L0 256z"/></symbol>
<symbol id="i-headset" viewBox="0 0 512 512"><path fill="currentColor" d="M256 48C141.1 48 48 141.1 48 256l0 40c0 13.3-10.7 24-24 24s-24-10.7-24-24l0-40C0 114.6 114.6 0 256 0S512 114.6 512 256l0 144.1c0 48.6-39.4 88-88.1 88L313.6 488c-8.3 14.3-23.8 24-41.6 24l-32 0c-26.5 0-48-21.5-48-48s21.5-48 48-48l32 0c17.8 0 33.3 9.7 41.6 24l110.4 .1c22.1 0 40-17.9 40-40L464 256c0-114.9-93.1-208-208-208zM144 208l16 0c17.7 0 32 14.3 32 32l0 112c0 17.7-14.3 32-32 32l-16 0c-35.3 0-64-28.7-64-64l0-48c0-35.3 28.7-64 64-64zm224 0c35.3 0 64 28.7 64 64l0 48c0 35.3-28.7 64-64 64l-16 0c-17.7 0-32-14.3-32-32l0-112c0-17.7 14.3-32 32-32l16 0z"/></symbol>
<symbol id="i-circle-play" viewBox="0 0 512 512"><path fill="currentColor" d="M464 256A208 208 0 1 0 48 256a208 208 0 1 0 416 0zM0 256a256 256 0 1 1 512 0A256 256 0 1 1 0 256zM188.3 147.1c7.6-4.2 16.8-4.1 24.3 .5l144 88c7.1 4.4 11.5 12.1 11.5 20.5s-4.4 16.1-11.5 20.5l-144 88c-7.4 4.5-16.7 4.7-24.3 .5s-12.3-12.2-12.3-20.9l0-176c0-8.7 4.7-16.7 12.3-20.9z"/></symbol>
<symbol id="i-scale-balanced" viewBox="0 0 640 512"><path fill="currentColor" d="M384 32l128 0c17.7 0 32 14.3 32 32s-14.3 32-32 32L398.4 96c-5.2 25.8-22.9 47.1-46.4 57.3L352 448l160 0c17.7 0 32 14.3 32 32s-14.3 32-32 32l-192 0-192 0c-17.7 0-32-14.3-32-32s14.3-32 32-32l160 0 0-294.7c-23.5-10.3-41.2-31.6-46.4-57.3L128 96c-17.7 0-32-14.3-32-32s14.3-32 32-32l128 0c14.6-19.4 37.8-32 64-32s49.4 12.6 64 32zm55.6 288l144.9 0L512 195.8 439.6 320zM512 416c-62.9 0-115.2-34-126-78.9c-2.6-11 1-22.3 6.7-32.1l95.2-163.2c5-8.6 14.2-13.8 24.1-13.8s19.1 5.3 24.1 13.8l95.2 163.2c5.7 9.8 9.3 21.1 6.7 32.1C627.2 382 574.9 416 512 416zM126.8 195.8L54.4 320l144.9 0L126.8 195.8zM.9 337.1c-2.6-11 1-22.3 6.7-32.1l95.2-163.2c5-8.6 14.2-13.8 24.1-13.8s19.1 5.3 24.1 13.8l95.2 163.2c5.7 9.8 9.3 21.1 6.7 32.1C242 382 189.7 416 126.8 416S11.7 382 .9 337.1z"/></symbol>
<symbol id="i-industry" viewBox="0 0 576 512"><path fill="currentColor" d="M64 32C28.7 32 0 60.7 0 96L0 416c0 35.3 28.7 64 64 64l448 0c35.3 0 64-28.7 64-64l0-216.7c0-29.4-31.6-48-57.4-33.7L416 224l0-26.7c0-29.4-31.6-48-57.4-33.7L256 224l0-128c0-35.3-28.7-64-64-64L64 32z"/></symbol>
<symbol id="i-stethoscope" viewBox="0 0 576 512"><path fill="currentColor" d="M11.7 4.7C20.6-1.6 32.6-1.6 41.5 4.9l40 29C90.1 40 96 50 96 60.6L96 192c0 53 43 96 96 96s96-43 96-96L288 60.6c0-10.6 5.9-20.6 14.5-26.7l40-29C351.4-1.6 363.4-1.6 372.3 4.7s12.7 18.1 8.5 28.4L348.6 99.5c-2.4 5.7-3.9 11.7-3.9 17.9c0 22.4 18.2 40.6 40.6 40.6l4.4 0c39.8 0 72 32.2 72 72l0 78.4c61.9 14.3 108 69.8 108 136l0 12.5c0 38-30.8 68.7-68.7 68.7L460 525.7c-22.5 0-40.7-18.2-40.7-40.7l0-12.5c0-66.2 46.1-121.7 108-136l0-78.4c0-13.3-10.7-24-24-24l-4.4 0c-22.4 0-40.6 18.2-40.6 40.6c0 6.2 1.5 12.2 3.9 17.9l32.2 66.4c4.2 10.3 .4 22.1-8.5 28.4s-20.9 6.3-29.7-.2l-40-29c-8.6-6.1-14.5-16.1-14.5-26.7l0-32c0 88.4-71.6 160-160 160s-160-71.6-160-160l0-32c0-10.6 5.9-20.6 14.5-26.7l40-29c8.9-6.5 20.9-6.5 29.7-.2zM488 432a16 16 0 1 0 0 32 16 16 0 1 0 0-32z"/></symbol>
<symbol id="i-chart-line" viewBox="0 0 512 512"><path fill="currentColor" d="M64 64c0-17.7-14.3-32-32-32S0 46.3 0 64L0 400c0 44.2 35.8 80 80 80l400 0c17.7 0 32-14.3 32-32s-14.3-32-32-32L80 416c-8.8 0-16-7.2-16-16L64 64zm406.6 86.6c12.5-12.5 12.5-32.8 0-45.3s-32.8-12.5-45.3 0L320 210.7l-57.4-57.4c-12.5-12.5-32.8-12.5-45.3 0l-112 112c-12.5 12.5-12.5 32.8 0 45.3s32.8 12.5 45.3 0L240 221.3l57.4 57.4c12.5 12.5 32.8 12.5 45.3 0l128-128z"/></symbol>
<symbol id="i-truck-fast" viewBox="0 0 640 512"><path fill="currentColor" d="M112 0C85.5 0 64 21.5 64 48l0 48L16 96c-8.8 0-16 7.2-16 16s7.2 16 16 16l48 0 208 0c8.8 0 16 7.2 16 16s-7.2 16-16 16L64 160l-16 0c-8.8 0-16 7.2-16 16s7.2 16 16 16l16 0 176 0c8.8 0 16 7.2 16 16s-7.2 16-16 16L64 224l-48 0c-8.8 0-16 7.2-16 16s7.2 16 16 16l48 0 144 0c8.8 0 16 7.2 16 16s-7.2 16-16 16L64 288l0 96c0 53 43 96 96 96s96-43 96-96l128 0c0 53 43 96 96 96s96-43 96-96l32 0c17.7 0 32-14.3 32-32s-14.3-32-32-32l0-66.7c0-17-6.7-33.3-18.7-45.3L512 109.3c-12-12-28.3-18.7-45.3-18.7L416 90.7l0-42.7c0-26.5-21.5-48-48-48L112 0zM544 237.3l0 18.7-128 0 0-96 50.7 0L544 237.3zM160 432a48 48 0 1 1 0-96 48 48 0 1 1 0 96zm272-48a48 48 0 1 1 96 0 48 48 0 1 1 -96 0z"/></symbol>
<symbol id="i-briefcase" viewBox="0 0 512 512"><path fill="currentColor" d="M184 48l144 0c4.4 0 8 3.6 8 8l0 40L176 96l0-40c0-4.4 3.6-8 8-8zm-56 8l0 40L64 96C28.7 96 0 124.7 0 160l0 96 192 0 128 0 192 0 0-96c0-35.3-28.7-64-64-64l-64 0 0-40c0-30.9-25.1-56-56-56L184 0c-30.9 0-56 25.1-56 56zM512 288l-192 0 0 32c0 17.7-14.3 32-32 32l-64 0c-17.7 0-32-14.3-32-32l0-32L0 288 0 416c0 35.3 28.7 64 64 64l384 0c35.3 0 64-28.7 64-64l0-128z"/></symbol>
<symbol id="i-building-columns" viewBox="0 0 512 512"><path fill="currentColor" d="M243.4 2.6l-224 96c-14 6-21.8 21-18.7 35.8S16.8 160 32 160l0 8c0 13.3 10.7 24 24 24l400 0c13.3 0 24-10.7 24-24l0-8c15.2 0 28.3-10.7 31.3-25.6s-4.8-29.9-18.7-35.8l-224-96c-8-3.4-17.2-3.4-25.2 0zM128 224l-64 0 0 196.3c-.6 .3-1.2 .7-1.8 1.1l-48 32c-11.7 7.8-17 22.4-12.9 35.9S17.9 512 32 512l448 0c14.1 0 26.5-9.2 30.6-22.7s-1.1-28.1-12.9-35.9l-48-32c-.6-.4-1.2-.7-1.8-1.1L448 224l-64 0 0 192-40 0 0-192-64 0 0 192-48 0 0-192-64 0 0 192-40 0 0-192zM256 64a32 32 0 1 1 0 64 32 32 0 1 1 0-64z"/></symbol>
<symbol id="i-microphone-lines" viewBox="0 0 384 512"><path fill="currentColor" d="M96 96l0 160c0 53 43 96 96 96s96-43 96-96l11.4 0c5.8 0 10.6-4.8 10.6-10.6c0-3-1.3-5.8-3.5-7.9L352 224l-44 0c-6.6 0-12-5.4-12-12s5.4-12 12-12l44 0L308 156c-2.4-2-3.5-4.9-3.5-7.9c0-5.8 4.8-10.6 10.6-10.6L288 96l11.4 0c5.8 0 10.6-4.8 10.6-10.6c0-3-1.3-5.8-3.5-7.9L262.6 32C249.8 12.4 227.5 0 202.7 0L181.3 0C146.3 0 119.5 13 96 41.5c-2.4 2-3.5 4.9-3.5 7.9C92.5 55.2 97.3 60 103 60L96 96zm224 192l-32 0c0 70.7-57.3 128-128 128s-128-57.3-128-128l-32 0c0 89.1 66.2 162.7 152 174.4l0 33.6L112 496c-13.3 0-24 10.7-24 24s10.7 24 24 24l160 0c13.3 0 24-10.7 24-24s-10.7-24-24-24l-48 0 0-33.6c85.8-11.7 152-85.3 152-174.4z"/></symbol>
<symbol id="i-folder-tree" viewBox="0 0 576 512"><path fill="currentColor" d="M64 32C28.7 32 0 60.7 0 96L0 224l0 32 0 160c0 35.3 28.7 64 64 64l448 0c35.3 0 64-28.7 64-64l0-160c0-35.3-28.7-64-64-64l-208 0-44.1-44.1c-12-12-28.3-18.7-45.3-18.7L208 128c-1.7 0-3.4 .1-5.1 .3c-1.6-15.5-9.5-29.6-21.5-39.7L160 71.5 160 64c0-17.7-14.3-32-32-32L64 32z"/></symbol>
<symbol id="i-envelope-open" viewBox="0 0 512 512"><path fill="currentColor" d="M255.4 48.2c.2-.1 .4-.2 .6-.2s.4 .1 .6 .2L460.6 194c2.1 1.5 3.4 3.9 3.4 6.5l0 13.6L291.5 355.7c-20.7 17-50.4 17-71.1 0L48 214.1l0-13.6c0-2.6 1.2-5 3.4-6.5L255.4 48.2zM48 276.2L190 392.8c38.4 31.5 93.7 31.5 132 0L464 276.2 464 456c0 4.4-3.6 8-8 8L56 464c-4.4 0-8-3.6-8-8l0-179.8zM256 0c-10.2 0-20.2 3.2-28.5 9.1L23.5 154.9C8.7 165.4 0 182.4 0 200.5L0 456c0 30.9 25.1 56 56 56l400 0c30.9 0 56-25.1 56-56l0-255.5c0-18.1-8.7-35.1-23.5-45.6L284.5 9.1C276.2 3.2 266.2 0 256 0z"/></symbol>
<symbol id="i-envelope" viewBox="0 0 512 512"><path fill="currentColor" d="M48 64C21.5 64 0 85.5 0 112c0 15.1 7.1 29.3 19.2 38.4L236.8 313.6c11.4 8.5 27 8.5 38.4 0L492.8 150.4c12.1-9.1 19.2-23.3 19.2-38.4c0-26.5-21.5-48-48-48L48 64zM0 176L0 384c0 35.3 28.7 64 64 64l384 0c35.3 0 64-28.7 64-64l0-208L294.4 339.2c-22.8 17.1-54 17.1-76.8 0L0 176z"/></symbol>
<symbol id="i-display" viewBox="0 0 576 512"><path fill="currentColor" d="M64 0C28.7 0 0 28.7 0 64L0 352c0 35.3 28.7 64 64 64l176 0-10.7 32L160 448c-17.7 0-32 14.3-32 32s14.3 32 32 32l256 0c17.7 0 32-14.3 32-32s-14.3-32-32-32l-69.3 0L336 416l176 0c35.3 0 64-28.7 64-64l0-288c0-35.3-28.7-64-64-64L64 0zM512 64l0 224L64 288 64 64l448 0z"/></symbol>
<symbol id="i-cloud-arrow-up" viewBox="0 0 640 512"><path fill="currentColor" d="M144 480C64.5 480 0 415.5 0 336c0-62.8 40.2-116.2 96.2-135.9c-.1-2.7-.2-5.4-.2-8.1c0-88.4 71.6-160 160-160c59.3 0 111 32.2 138.7 80.2C409.9 102 428.3 96 448 96c53 0 96 43 96 96c0 12.2-2.3 23.8-6.4 34.6C596 238.4 640 290.1 640 352c0 70.7-57.3 128-128 128l-368 0zm79-217c-9.4 9.4-9.4 24.6 0 33.9s24.6 9.4 33.9 0l39-39L296 392c0 13.3 10.7 24 24 24s24-10.7 24-24l0-134.1 39 39c9.4 9.4 24.6 9.4 33.9 0s9.4-24.6 0-33.9l-80-80c-9.4-9.4-24.6-9.4-33.9 0l-80 80z"/></symbol>
<symbol id="i-server" viewBox="0 0 512 512"><path fill="currentColor" d="M64 32C28.7 32 0 60.7 0 96l0 64c0 35.3 28.7 64 64 64l384 0c35.3 0 64-28.7 64-64l0-64c0-35.3-28.7-64-64-64L64 32zm280 72a24 24 0 1 1 0 48 24 24 0 1 1 0-48zm48 24a24 24 0 1 1 48 0 24 24 0 1 1 -48 0zM64 288c-35.3 0-64 28.7-64 64l0 64c0 35.3 28.7 64 64 64l384 0c35.3 0 64-28.7 64-64l0-64c0-35.3-28.7-64-64-64L64 288zm280 72a24 24 0 1 1 0 48 24 24 0 1 1 0-48zm56 24a24 24 0 1 1 48 0 24 24 0 1 1 -48 0z"/></symbol>
<symbol id="i-network-wired" viewBox="0 0 640 512"><path fill="currentColor" d="M256 64l128 0 0 64-128 0 0-64zM240 0c-26.5 0-48 21.5-48 48l0 96c0 26.5 21.5 48 48 48l48 0 0 32L32 224c-17.7 0-32 14.3-32 32s14.3 32 32 32l96 0 0 32-48 0c-26.5 0-48 21.5-48 48l0 96c0 26.5 21.5 48 48 48l160 0c26.5 0 48-21.5 48-48l0-96c0-26.5-21.5-48-48-48l-48 0 0-32 256 0 0 32-48 0c-26.5 0-48 21.5-48 48l0 96c0 26.5 21.5 48 48 48l160 0c26.5 0 48-21.5 48-48l0-96c0-26.5-21.5-48-48-48l-48 0 0-32 96 0c17.7 0 32-14.3 32-32s-14.3-32-32-32l-256 0 0-32 48 0c26.5 0 48-21.5 48-48l0-96c0-26.5-21.5-48-48-48L240 0zM96 384l128 0 0 64L96 448l0-64zm320 0l128 0 0 64-128 0 0-64z"/></symbol>
<symbol id="i-infinity" viewBox="0 0 640 512"><path fill="currentColor" d="M0 241.1C0 161 65 96 145.1 96c38.5 0 75.4 15.3 102.6 42.5L320 210.7l72.2-72.2C419.5 111.3 456.4 96 494.9 96C575 96 640 161 640 241.1l0 29.9c0 80.1-65 145.1-145.1 145.1c-38.5 0-75.4-15.3-102.6-42.5L320 301.3l-72.2 72.2C220.5 400.7 183.6 416 145.1 416C65 416 0 351 0 270.9l0-29.9zM274.7 256l-72.2-72.2c-15.2-15.2-35.9-23.8-57.4-23.8C100.3 160 64 196.3 64 241.1l0 29.9c0 44.7 36.3 81.1 81.1 81.1c21.5 0 42.2-8.5 57.4-23.8L274.7 256zm90.5 0l72.2 72.2c15.2 15.2 35.9 23.8 57.4 23.8c44.7 0 81.1-36.3 81.1-81.1l0-29.9c0-44.7-36.3-81.1-81.1-81.1c-21.5 0-42.2 8.5-57.4 23.8L365.3 256z"/></symbol>
<symbol id="i-mobile-screen-button" viewBox="0 0 384 512"><path fill="currentColor" d="M16 64C16 28.7 44.7 0 80 0L304 0c35.3 0 64 28.7 64 64l0 384c0 35.3-28.7 64-64 64L80 512c-35.3 0-64-28.7-64-64L16 64zM176 432c0 8.8 7.2 16 16 16l0 0c8.8 0 16-7.2 16-16s-7.2-16-16-16l0 0c-8.8 0-16 7.2-16 16zM304 64L80 64l0 320 224 0 0-320z"/></symbol>
<symbol id="i-fingerprint" viewBox="0 0 512 512"><path fill="currentColor" d="M48 256C48 141.1 141.1 48 256 48c63.1 0 119.6 28.1 157.8 72.5c8.6 10.1 23.8 11.2 33.8 2.6s11.2-23.8 2.6-33.8C403.3 34.6 333.7 0 256 0C114.6 0 0 114.6 0 256l0 40c0 13.3 10.7 24 24 24s24-10.7 24-24l0-40zm458.5-52.9c-2.7-13-15.5-21.3-28.4-18.5s-21.3 15.5-18.5 28.4c2.9 13.9 4.5 28.3 4.5 43.1l0 40c0 13.3 10.7 24 24 24s24-10.7 24-24l0-40c0-18.1-1.9-35.8-5.5-52.9zM256 80c-19 0-37.4 3-54.5 8.6c-15.2 5-18.7 23.7-8.3 35.9c7.1 8.3 18.8 10.8 29.4 7.9c10.6-2.9 21.8-4.4 33.4-4.4c70.7 0 128 57.3 128 128l0 24.9c0 25.2-1.5 50.3-4.4 75.3c-1.7 14.6 9.4 27.8 24.2 27.8c11.8 0 21.9-8.6 23.3-20.3c3.3-27.4 5-55 5-82.7l0-24.9c0-97.2-78.8-176-176-176zM150.7 148.7c-9.1-10.6-25.3-11.4-33.9-.4C93.7 178 80 215.4 80 256l0 24.9c0 24.2-2.6 48.4-7.8 71.9C68.8 368.4 80.1 384 96.1 384c10.5 0 19.9-7 22.2-17.3c6.4-28.1 9.7-56.8 9.7-85.8l0-24.9c0-27.2 8.5-52.4 22.9-73.1c7.2-10.4 8-24.6-.2-34.2zM256 160c-53 0-96 43-96 96l0 24.9c0 35.9-4.6 71.5-13.8 106.1c-3.8 14.3 6.7 29 21.5 29c9.5 0 17.9-6.2 20.4-15.4c10.5-39 15.9-79.2 15.9-119.7l0-24.9c0-26.5 21.5-48 48-48s48 21.5 48 48l0 24.9c0 23.1-1.1 46.3-3.2 69.3c-1.4 15 10.5 27.7 25.5 27.7c12.4 0 22.9-9 24.1-21.3c2.4-25.1 3.6-50.4 3.6-75.7l0-24.9c0-53-43-96-96-96zm24 96c0-13.3-10.7-24-24-24s-24 10.7-24 24l0 24.9c0 59.9-11 119.3-32.5 175.2l-5.9 15.3c-4.8 12.4 1.4 26.3 13.8 31s26.3-1.4 31-13.8l5.9-15.3C268.1 411.4 280 346.8 280 280.9l0-24.9z"/></symbol>
<symbol id="i-circle-check" viewBox="0 0 512 512"><path fill="currentColor" d="M256 512A256 256 0 1 0 256 0a256 256 0 1 0 0 512zM369 209L241 337c-9.4 9.4-24.6 9.4-33.9 0l-64-64c-9.4-9.4-9.4-24.6 0-33.9s24.6-9.4 33.9 0l47 47L335 175c9.4-9.4 24.6-9.4 33.9 0s9.4 24.6 0 33.9z"/></symbol>
<symbol id="i-check" viewBox="0 0 448 512"><path fill="currentColor" d="M438.6 105.4c12.5 12.5 12.5 32.8 0 45.3l-256 256c-12.5 12.5-32.8 12.5-45.3 0l-128-128c-12.5-12.5-12.5-32.8 0-45.3s32.8-12.5 45.3 0L160 338.7 393.4 105.4c12.5-12.5 32.8-12.5 45.3 0z"/></symbol>
<symbol id="i-file-lines" viewBox="0 0 384 512"><path fill="currentColor" d="M64 0C28.7 0 0 28.7 0 64L0 448c0 35.3 28.7 64 64 64l256 0c35.3 0 64-28.7 64-64l0-288-128 0c-17.7 0-32-14.3-32-32L224 0 64 0zM256 0l0 128 128 0L256 0zM112 256l160 0c8.8 0 16 7.2 16 16s-7.2 16-16 16l-160 0c-8.8 0-16-7.2-16-16s7.2-16 16-16zm0 64l160 0c8.8 0 16 7.2 16 16s-7.2 16-16 16l-160 0c-8.8 0-16-7.2-16-16s7.2-16 16-16zm0 64l160 0c8.8 0 16 7.2 16 16s-7.2 16-16 16l-160 0c-8.8 0-16-7.2-16-16s7.2-16 16-16z"/></symbol>
<symbol id="i-file-contract" viewBox="0 0 384 512"><path fill="currentColor" d="M64 0C28.7 0 0 28.7 0 64L0 448c0 35.3 28.7 64 64 64l256 0c35.3 0 64-28.7 64-64l0-288-128 0c-17.7 0-32-14.3-32-32L224 0 64 0zM256 0l0 128 128 0L256 0zM176 224c0-8.8 7.2-16 16-16s16 7.2 16 16l0 17.3c8.5 1.2 16.7 3.1 24.1 5.1c8.5 2.3 13.6 11 11.3 19.6s-11 13.6-19.6 11.3c-11.1-3-22-5.2-32.1-5.3c-8.4-.1-17.4 1.8-23.6 5.5c-5.7 3.4-8.1 7.3-8.1 12.8c0 3.7 1.3 6.5 7.3 10.1c6.9 4.1 16.6 7.1 29.2 10.9l.5 .1 0 0 0 0c11.3 3.4 25.3 7.6 36.3 14.6c12.1 7.6 22.4 19.7 22.7 38.2c.3 19.3-9.6 33.3-22.9 41.6c-7.7 4.8-16.4 7.6-25.1 9.1l0 17.1c0 8.8-7.2 16-16 16s-16-7.2-16-16l0-17.8c-11.2-2.1-21.7-5.7-30.9-8.9l0 0c-2.1-.7-4.2-1.4-6.2-2.1c-8.4-2.8-12.9-11.9-10.1-20.2s11.9-12.9 20.2-10.1c2.5 .8 4.8 1.6 7.1 2.4l0 0 0 0 0 0c13.6 4.6 24.6 8.4 36.3 8.7c9.1 .3 17.9-1.7 23.7-5.3c5.1-3.2 7.9-7.3 7.8-14c-.1-4.6-1.8-7.8-7.7-11.6c-6.8-4.3-16.5-7.4-29-11.2l-1.6-.5 0 0c-11-3.3-24.3-7.3-34.8-13.7c-12-7.2-22.6-18.9-22.7-37.3c-.1-19.4 10.8-32.8 23.8-40.5c7.5-4.4 15.8-7.2 24.1-8.7l0-17.3z"/></symbol>
<symbol id="i-list-check" viewBox="0 0 512 512"><path fill="currentColor" d="M152.1 38.2c9.9 8.9 10.7 24 1.8 33.9l-72 80c-4.4 4.9-10.6 7.8-17.2 7.9s-12.9-2.4-17.6-7L7 113C-2.3 103.6-2.3 88.4 7 79s24.6-9.4 33.9 0l22.1 22.1 55.1-61.2c8.9-9.9 24-10.7 33.9-1.8zm0 160c9.9 8.9 10.7 24 1.8 33.9l-72 80c-4.4 4.9-10.6 7.8-17.2 7.9s-12.9-2.4-17.6-7L7 273c-9.4-9.4-9.4-24.6 0-33.9s24.6-9.4 33.9 0l22.1 22.1 55.1-61.2c8.9-9.9 24-10.7 33.9-1.8zM224 96c0-17.7 14.3-32 32-32l224 0c17.7 0 32 14.3 32 32s-14.3 32-32 32l-224 0c-17.7 0-32-14.3-32-32zm0 160c0-17.7 14.3-32 32-32l224 0c17.7 0 32 14.3 32 32s-14.3 32-32 32l-224 0c-17.7 0-32-14.3-32-32zM160 416c0-17.7 14.3-32 32-32l288 0c17.7 0 32 14.3 32 32s-14.3 32-32 32l-288 0c-17.7 0-32-14.3-32-32zM48 368a48 48 0 1 1 0 96 48 48 0 1 1 0-96z"/></symbol>
<symbol id="i-download" viewBox="0 0 512 512"><path fill="currentColor" d="M288 32c0-17.7-14.3-32-32-32s-32 14.3-32 32l0 242.7-73.4-73.4c-12.5-12.5-32.8-12.5-45.3 0s-12.5 32.8 0 45.3l128 128c12.5 12.5 32.8 12.5 45.3 0l128-128c12.5-12.5 12.5-32.8 0-45.3s-32.8-12.5-45.3 0L288 274.7 288 32zM64 352c-35.3 0-64 28.7-64 64l0 32c0 35.3 28.7 64 64 64l384 0c35.3 0 64-28.7 64-64l0-32c0-35.3-28.7-64-64-64l-101.5 0-45.3 45.3c-25 25-65.5 25-90.5 0L165.5 352 64 352zm368 56a24 24 0 1 1 0 48 24 24 0 1 1 0-48z"/></symbol>
<symbol id="i-clock" viewBox="0 0 512 512"><path fill="currentColor" d="M256 0a256 256 0 1 1 0 512A256 256 0 1 1 256 0zM232 120l0 136c0 8 4 15.5 10.7 20l96 64c11 7.4 25.9 4.4 33.3-6.7s4.4-25.9-6.7-33.3L280 243.2 280 120c0-13.3-10.7-24-24-24s-24 10.7-24 24z"/></symbol>
<symbol id="i-file-pdf" viewBox="0 0 512 512"><path fill="currentColor" d="M0 64C0 28.7 28.7 0 64 0L224 0l0 128c0 17.7 14.3 32 32 32l128 0 0 144-208 0c-35.3 0-64 28.7-64 64l0 144-48 0c-35.3 0-64-28.7-64-64L0 64zm384 64l-128 0L256 0 384 128zM176 352l32 0c30.9 0 56 25.1 56 56s-25.1 56-56 56l-16 0 0 32c0 8.8-7.2 16-16 16s-16-7.2-16-16l0-128c0-8.8 7.2-16 16-16zm32 80c13.3 0 24-10.7 24-24s-10.7-24-24-24l-16 0 0 48 16 0zm96-80l32 0c26.5 0 48 21.5 48 48l0 64c0 26.5-21.5 48-48 48l-32 0c-8.8 0-16-7.2-16-16l0-128c0-8.8 7.2-16 16-16zm32 128c8.8 0 16-7.2 16-16l0-64c0-8.8-7.2-16-16-16l-16 0 0 96 16 0zm80-112c0-8.8 7.2-16 16-16l48 0c8.8 0 16 7.2 16 16s-7.2 16-16 16l-32 0 0 32 32 0c8.8 0 16 7.2 16 16s-7.2 16-16 16l-32 0 0 48c0 8.8-7.2 16-16 16s-16-7.2-16-16l0-64 0-64z"/></symbol>
<symbol id="i-phone" viewBox="0 0 512 512"><path fill="currentColor" d="M164.9 24.6c-7.7-18.6-28-28.5-47.4-23.2l-88 24C12.1 30.2 0 46 0 64C0 311.4 200.6 512 448 512c18 0 33.8-12.1 38.6-29.5l24-88c5.3-19.4-4.6-39.7-23.2-47.4l-96-40c-16.3-6.8-35.2-2.1-46.3 11.6L304.7 368C234.3 334.7 177.3 277.7 144 207.3L193.3 167c13.7-11.2 18.4-30 11.6-46.3l-40-96z"/></symbol>
<symbol id="i-paper-plane" viewBox="0 0 512 512"><path fill="currentColor" d="M498.1 5.6c10.1 7 15.4 19.1 13.5 31.2l-64 416c-1.5 9.7-7.4 18.2-16 23s-18.9 5.4-28 1.6L284 427.7l-68.5 74.1c-8.9 9.7-22.9 12.9-35.2 8.1S160 493.2 160 480l0-83.6c0-4 1.5-7.8 4.2-10.8L331.8 202.8c5.8-6.3 5.6-16-.4-22s-15.7-6.4-22-.7L106 360.8 17.7 316.6C7.1 311.3 .3 300.7 0 288.9s5.9-22.8 16.1-28.7l448-256c10.7-6.1 23.9-5.5 34 1.4z"/></symbol>
<symbol id="i-location-dot" viewBox="0 0 384 512"><path fill="currentColor" d="M215.7 499.2C267 435 384 279.4 384 192C384 86 298 0 192 0S0 86 0 192c0 87.4 117 243 168.3 307.2c12.3 15.3 35.1 15.3 47.4 0zM192 128a64 64 0 1 1 0 128 64 64 0 1 1 0-128z"/></symbol>
<symbol id="i-linkedin-in" viewBox="0 0 448 512"><path fill="currentColor" d="M100.3 448H7.4V148.9h92.9zM53.8 108.1C24.1 108.1 0 83.5 0 53.8a53.8 53.8 0 0 1 107.6 0c0 29.7-24.1 54.3-53.8 54.3zM447.9 448h-92.7V302.4c0-34.7-.7-79.2-48.3-79.2-48.3 0-55.7 37.7-55.7 76.7V448h-92.8V148.9h89.1v40.8h1.3c12.4-23.5 42.7-48.3 87.9-48.3 94 0 111.3 61.9 111.3 142.3V448z"/></symbol>
<symbol id="i-x-twitter" viewBox="0 0 512 512"><path fill="currentColor" d="M389.2 48h70.6L305.6 224.2 487 464H345L233.7 318.6 106.5 464H35.8L200.7 275.5 26.8 48H172.4L272.9 180.9 389.2 48zM364.4 421.8h39.1L151.1 88h-42L364.4 421.8z"/></symbol>
<symbol id="i-facebook-f" viewBox="0 0 320 512"><path fill="currentColor" d="M80 299.3V512H196V299.3h86.5l18-97.8H196V166.9c0-51.7 20.3-71.5 72.7-71.5c16.3 0 29.4 .4 37 1.2V7.9C291.4 4 256.4 0 236.2 0C129.3 0 80 50.5 80 159.4v42.1H14v97.8H80z"/></symbol>
<symbol id="i-youtube" viewBox="0 0 576 512"><path fill="currentColor" d="M549.7 124.1c-6.3-23.7-24.8-42.3-48.3-48.6C458.8 64 288 64 288 64S117.2 64 74.6 75.5c-23.5 6.3-42 24.9-48.3 48.6-11.4 42.9-11.4 132.3-11.4 132.3s0 89.4 11.4 132.3c6.3 23.7 24.8 41.5 48.3 47.8C117.2 448 288 448 288 448s170.8 0 213.4-11.5c23.5-6.3 42-24.2 48.3-47.8 11.4-42.9 11.4-132.3 11.4-132.3s0-89.4-11.4-132.3zm-317.5 213.5V175.2l142.7 81.2-142.7 81.2z"/></symbol>
</defs>
</svg>
